<svg width="287" height="248" viewBox="0 0 287 248" fill="none" xmlns="http://www.w3.org/2000/svg">
<g clip-path="url(#clip0_11_22)">
<path d="M224 225.75L134.23 99.49C144.53 94.98 146.59 88.55 146.59 80.54C146.59 40.47 89 10 45.47 10C25.51 10 15 18.69 15 18.69C30.77 27.59 52.19 51.44 64.32 77.92C75.34 102 85.54 118.65 101 118.65C110.32 118.65 116.11 112.74 119.25 108.04L200.55 241.22C201.566 242.76 202.875 244.084 204.403 245.118C205.93 246.152 207.647 246.875 209.454 247.245C211.261 247.616 213.123 247.627 214.934 247.278C216.746 246.928 218.47 246.226 220.01 245.21C221.55 244.194 222.874 242.885 223.908 241.357C224.942 239.83 225.665 238.113 226.035 236.306C226.406 234.499 226.417 232.637 226.068 230.826C225.718 229.014 225.016 227.29 224 225.75ZM125.81 98.75L121.14 101.59C121.042 101.648 120.933 101.685 120.821 101.698C120.708 101.711 120.593 101.7 120.485 101.666C120.376 101.632 120.276 101.576 120.191 101.501C120.106 101.426 120.037 101.333 119.99 101.23C118.26 97.42 110.78 81.37 103.33 71.54C94.84 60.33 84.13 53 74 50C74 50 105.69 51.35 126.16 97.7C126.244 97.8886 126.255 98.1016 126.19 98.2976C126.125 98.4936 125.99 98.6585 125.81 98.76V98.75Z" fill="#90C466"/>
<path d="M181.515 109.113L168.105 96.7333L53.0652 213.443C51.7371 214.781 50.6928 216.373 49.9949 218.124C49.297 219.875 48.9599 221.749 49.0038 223.633C49.0477 225.518 49.4717 227.374 50.2503 229.091C51.029 230.807 52.1463 232.349 53.5352 233.623C54.9141 234.897 56.5343 235.882 58.3001 236.519C60.0659 237.156 61.9415 237.433 63.8161 237.334C65.6907 237.234 67.5264 236.759 69.2146 235.938C70.9028 235.117 72.4093 233.966 73.6452 232.553L181.515 109.113Z" fill="white" stroke="#231F20" stroke-miterlimit="10"/>
<path d="M187.205 114.253C201.272 114.253 212.675 102.85 212.675 88.7832C212.675 74.7165 201.272 63.3132 187.205 63.3132C173.138 63.3132 161.735 74.7165 161.735 88.7832C161.735 102.85 173.138 114.253 187.205 114.253Z" fill="white" stroke="#231F20" stroke-miterlimit="10"/>
<path d="M236.389 1.73674C236.636 1.96482 236.835 2.23931 236.976 2.54454C237.117 2.84977 237.196 3.17976 237.21 3.51568C237.223 3.85159 237.17 4.18685 237.054 4.50232C236.938 4.81778 236.761 5.10728 236.533 5.35426L172.239 74.9797L168.478 71.5062L232.771 1.88077C233.232 1.38196 233.872 1.08655 234.55 1.05954C235.228 1.03253 235.89 1.27613 236.389 1.73674Z" fill="white" stroke="#231F20" stroke-miterlimit="10"/>
<path d="M270.053 32.8159C270.549 33.2742 270.844 33.91 270.874 34.5849C270.903 35.2598 270.665 35.9189 270.21 36.4188L205.917 106.044L202.163 102.577L266.456 32.9521C266.917 32.4533 267.557 32.1578 268.235 32.1308C268.913 32.1038 269.575 32.3474 270.074 32.808L270.053 32.8159Z" fill="white" stroke="#231F20" stroke-miterlimit="10"/>
<path d="M258.838 22.4628C259.337 22.9234 259.632 23.5633 259.659 24.2418C259.686 24.9202 259.443 25.5815 258.982 26.0803L194.689 95.7058L190.927 92.2323L255.221 22.6068C255.681 22.108 256.321 21.8126 256.999 21.7856C257.678 21.7586 258.339 22.0022 258.838 22.4628Z" fill="white" stroke="#231F20" stroke-miterlimit="10"/>
<path d="M247.613 12.0998C248.112 12.5604 248.408 13.2003 248.435 13.8787C248.462 14.5571 248.218 15.2185 247.757 15.7173L183.464 85.3427L179.702 81.8692L243.996 12.2438C244.456 11.745 245.096 11.4496 245.775 11.4226C246.453 11.3956 247.115 11.6392 247.613 12.0998Z" fill="white" stroke="#231F20" stroke-miterlimit="10"/>
</g>
<defs>
<clipPath id="clip0_11_22">
<rect width="286.947" height="247.532" fill="white"/>
</clipPath>
</defs>
</svg>
