<svg id="Layer_1" data-name="Layer 1" xmlns="http://www.w3.org/2000/svg" viewBox="0 0 1000 280"><defs><style>.cls-1{fill:#202219;}.cls-2{fill:#90c466;}</style></defs><path class="cls-1" d="M178.52,130.72l-13.41-12.37L50.07,235a14.05,14.05,0,0,0,.47,20.19h0a14.05,14.05,0,0,0,20.11-1.08Z"/><circle class="cls-1" cx="184.21" cy="110.39" r="25.47"/><path class="cls-1" d="M200.39,10.43h0A2.56,2.56,0,0,1,202.95,13v94.77a0,0,0,0,1,0,0h-5.12a0,0,0,0,1,0,0V13a2.56,2.56,0,0,1,2.56-2.56Z" transform="translate(93.25 -120.26) rotate(42.72)"/><path class="cls-1" d="M234.05,41.52h0a2.56,2.56,0,0,1,2.56,2.56v94.77a0,0,0,0,1,0,0H231.5a0,0,0,0,1,0,0V44.08A2.56,2.56,0,0,1,234.05,41.52Z" transform="translate(123.27 -134.85) rotate(42.72)"/><path class="cls-1" d="M222.83,31.16h0a2.56,2.56,0,0,1,2.56,2.56v94.77a0,0,0,0,1,0,0h-5.12a0,0,0,0,1,0,0V33.72a2.56,2.56,0,0,1,2.56-2.56Z" transform="translate(113.26 -129.99) rotate(42.72)"/><path class="cls-1" d="M211.61,20.8h0a2.56,2.56,0,0,1,2.56,2.56v94.77a0,0,0,0,1,0,0h-5.12a0,0,0,0,1,0,0V23.35a2.56,2.56,0,0,1,2.56-2.56Z" transform="translate(103.26 -125.13) rotate(42.72)"/><path class="cls-2" d="M214,236.81,124.23,110.55c10.3-4.52,12.36-10.94,12.36-19,0-40.07-57.61-70.55-101.12-70.55-20,0-30.47,8.7-30.47,8.7C20.77,38.64,42.19,62.49,54.32,89,65.34,113,75.54,129.7,91,129.7c9.32,0,15.11-5.9,18.25-10.6l81.3,133.17A14,14,0,1,0,214,236.81Zm-98.19-127-4.67,2.84a.8.8,0,0,1-1.15-.35c-1.73-3.81-9.21-19.86-16.66-29.7C84.84,71.39,74.13,64,64,61.08c0,0,31.69,1.35,52.16,47.69A.83.83,0,0,1,115.81,109.81Z"/><path class="cls-1" d="M341.55,125.27c30.62,0,46,23.79,46,47.43s-15.37,47.16-46,47.16H304.71V125.27Zm0,72.56c15.64,0,23.59-12.7,23.59-25.13s-7.95-25.53-23.59-25.53H327.24v50.66Z"/><path class="cls-1" d="M406,118.25c6.36-.14,13,3.92,13,12.43,0,7.84-6,11.76-12.06,11.89-6.36.13-13-3.78-13-11.89S399.85,118.38,406,118.25Zm-10.07,28.51v73.1h21.2v-73.1Z"/><path class="cls-1" d="M502.43,191.48H451c2.51,6.76,9,10.14,15.37,10.27a15.92,15.92,0,0,0,12.06-5H501.1c-5.56,16.22-20.67,24.19-35.78,23.92-18.16-.4-36.18-12.84-36.18-37.56,0-25.14,18.69-37.57,37.37-37.43,18.42.13,36.72,12.56,36.72,37.43A42.68,42.68,0,0,1,502.43,191.48Zm-22-16.62c-2-7.29-7.82-10.67-14.58-10.67a14.19,14.19,0,0,0-14.05,10.67Z"/><path class="cls-1" d="M548.15,221.08c-16,.13-25.71-7.43-25.71-26.49V165.81H513V147.57h9.42V133.65l20.8-1.89v15.81h15v18.24h-15v28.78c0,6.49,4.64,8.51,9.68,8.51a29.1,29.1,0,0,0,6-.67l.67,17.57A72.44,72.44,0,0,1,548.15,221.08Z"/><path class="cls-1" d="M640.77,125.27c30.62,0,46,23.79,46,47.43s-15.37,47.16-46,47.16H603.93V125.27Zm0,72.56c15.65,0,23.59-12.7,23.59-25.13s-7.94-25.53-23.59-25.53H626.46v50.66Z"/><path class="cls-1" d="M705.18,118.25c6.36-.14,13,3.92,13,12.43,0,7.84-6,11.76-12.07,11.89-6.36.13-13-3.78-13-11.89S699.08,118.38,705.18,118.25Zm-10.07,28.51v73.1h21.2v-73.1Z"/><path class="cls-1" d="M748.51,146.76v7.3c5-6.49,13.52-8.38,21.21-8.38,20.4.27,26,15.67,25.84,33.91v40.27h-21.2V179.73c0-9.87-5.44-14.32-11.13-14.32-6.23,0-13.66,5.4-13.66,14.72v39.73H727.44v-73.1Z"/><path class="cls-1" d="M819.81,118.25c6.36-.14,13,3.92,13,12.43,0,7.84-6,11.76-12.06,11.89-6.36.13-13-3.78-13-11.89S813.71,118.38,819.81,118.25Zm-10.07,28.51v73.1h21.2v-73.1Z"/><path class="cls-1" d="M863.14,146.76v7.3c5-6.49,13.52-8.38,21.2-8.38,20.41.27,26,15.67,25.85,33.91v40.27H889V179.73c0-9.87-5.43-14.32-11.13-14.32-6.23,0-13.65,5.4-13.65,14.72v39.73H842.07v-73.1Z"/><path class="cls-1" d="M921.05,183.92c0-21.08,11.66-38.11,34.46-38,6.89,0,13.91,1.89,18.69,8.11v-7.3H995v68.91c0,27-18.29,38-36.45,38-17.76,0-35.38-10.94-35.38-28.64H945c0,4.45,6.22,8.1,12.85,8,7.56-.14,15.64-4.33,16.31-17.16V212c-4.65,5.54-11.4,7.57-18.56,7.57C932.58,219.59,921.05,204.05,921.05,183.92Zm20.94.27c.13,10.27,8.08,15.27,16,15.27s16.17-5.41,16.17-15.54c0-9.73-7.3-17.7-16.17-17.7C947.15,166.22,941.86,175.41,942,184.19Z"/></svg>